<svg 
 xmlns="http://www.w3.org/2000/svg"
 xmlns:xlink="http://www.w3.org/1999/xlink"
 width="28px" height="21px">
<path fill-rule="evenodd"  fill="rgb(185, 148, 3)"
 d="M27.692,20.183 L18.037,10.527 L25.182,3.381 L27.715,0.849 C27.880,1.116 28.000,1.413 28.000,1.750 L28.000,19.250 C28.000,19.601 27.870,19.909 27.692,20.183 ZM24.564,2.763 L21.305,6.022 L15.067,12.259 L13.973,13.354 L3.436,2.817 L1.686,1.067 L0.882,0.263 C1.142,0.111 1.427,-0.000 1.750,-0.000 L26.250,-0.000 C26.558,-0.000 26.833,0.101 27.085,0.241 L26.204,1.122 L24.564,2.763 ZM1.067,1.686 L9.881,10.500 L0.263,20.118 C0.111,19.858 -0.000,19.573 -0.000,19.250 L-0.000,1.750 C-0.000,1.427 0.111,1.142 0.263,0.882 L1.067,1.686 L1.067,1.686 ZM10.500,11.119 L10.869,11.488 L11.001,11.620 L12.204,12.823 L13.954,14.573 L14.027,14.500 L14.046,14.518 L15.686,12.878 L17.418,11.146 L27.052,20.780 C26.809,20.909 26.544,21.000 26.250,21.000 L1.750,21.000 C1.427,21.000 1.142,20.889 0.882,20.736 L10.500,11.119 Z"/>
</svg>